<svg width="56" height="56" viewBox="0 0 56 56" fill="none" xmlns="http://www.w3.org/2000/svg">
<path d="M14 44.3334C12.4679 44.3334 10.9508 44.0316 9.53535 43.4453C8.11989 42.859 6.83377 41.9996 5.75042 40.9163C3.56249 38.7283 2.33333 35.7609 2.33333 32.6667C2.33333 29.5725 3.56249 26.605 5.75042 24.4171C7.93834 22.2292 10.9058 21 14 21C16.3333 15.5167 21.7 11.6667 28 11.6667C36.0033 11.6667 42.56 17.8734 43.1667 25.7367L44.3333 25.6667C46.8087 25.6667 49.1826 26.65 50.933 28.4004C52.6833 30.1507 53.6667 32.5247 53.6667 35C53.6667 37.4754 52.6833 39.8493 50.933 41.5997C49.1826 43.35 46.8087 44.3334 44.3333 44.3334H14ZM44.3333 30.3334H39.6667V28C39.6667 24.9058 38.4375 21.9384 36.2496 19.7504C34.0616 17.5625 31.0942 16.3334 28 16.3334C22.1667 16.3334 17.3833 20.58 16.4733 26.11C15.7033 25.83 14.8633 25.6667 14 25.6667C12.1435 25.6667 10.363 26.4042 9.05025 27.7169C7.73749 29.0297 6.99999 30.8102 6.99999 32.6667C6.99999 34.5232 7.73749 36.3037 9.05025 37.6164C10.363 38.9292 12.1435 39.6667 14 39.6667H44.3333C45.571 39.6667 46.758 39.175 47.6332 38.2999C48.5083 37.4247 49 36.2377 49 35C49 33.7623 48.5083 32.5754 47.6332 31.7002C46.758 30.825 45.571 30.3334 44.3333 30.3334Z" fill="black"/>
</svg>
