<svg width="29" height="32" viewBox="0 0 29 32" fill="none" xmlns="http://www.w3.org/2000/svg">
<path d="M0 17.4167C0 21.196 1.50133 24.8205 4.17373 27.4929C6.84612 30.1653 10.4707 31.6667 14.25 31.6667C14.25 27.8873 12.7487 24.2628 10.0763 21.5904C7.40388 18.918 3.77934 17.4167 0 17.4167ZM3.86333 21.28C6.8875 22.4042 9.2625 24.7792 10.3867 27.8033C7.3625 26.6792 4.9875 24.3042 3.86333 21.28ZM14.25 31.6667C18.0293 31.6667 21.6539 30.1653 24.3263 27.4929C26.9987 24.8205 28.5 21.196 28.5 17.4167C24.7207 17.4167 21.0961 18.918 18.4237 21.5904C15.7513 24.2628 14.25 27.8873 14.25 31.6667ZM18.0817 27.8192C19.1742 24.7633 21.5967 22.3408 24.6525 21.2483C23.5283 24.2883 21.1217 26.695 18.0817 27.8192ZM14.25 19C16.7696 19 19.1859 17.9991 20.9675 16.2175C22.7491 14.4359 23.75 12.0196 23.75 9.5V1.58333C22.5783 1.58333 21.4225 1.77333 20.33 2.20083C19.4592 2.565 18.6833 3.10333 18.0342 3.78417L14.25 0L10.4658 3.78417C9.81667 3.10333 9.04083 2.565 8.17 2.20083C7.0775 1.77333 5.92167 1.58333 4.75 1.58333V9.5C4.75 12.0196 5.75089 14.4359 7.53249 16.2175C9.31408 17.9991 11.7304 19 14.25 19ZM7.91667 5.71583L10.4025 8.32833L14.25 4.48083L18.0975 8.32833L20.5833 5.71583V9.5C20.5833 11.1797 19.9161 12.7906 18.7283 13.9783C17.5406 15.1661 15.9297 15.8333 14.25 15.8333C12.5703 15.8333 10.9594 15.1661 9.77166 13.9783C8.58393 12.7906 7.91667 11.1797 7.91667 9.5V5.71583Z" fill="#65A30D"/>
</svg>
