<svg width="35" height="35" viewBox="0 0 35 35" fill="none" xmlns="http://www.w3.org/2000/svg">
<path d="M17.5 0.416656C15.2566 0.416656 13.0351 0.85853 10.9625 1.71705C8.88984 2.57557 7.00658 3.83391 5.42025 5.42025C2.2165 8.624 0.416656 12.9692 0.416656 17.5C0.416656 22.0308 2.2165 26.376 5.42025 29.5797C7.00658 31.1661 8.88984 32.4244 10.9625 33.2829C13.0351 34.1415 15.2566 34.5833 17.5 34.5833C22.0308 34.5833 26.376 32.7835 29.5797 29.5797C32.7835 26.376 34.5833 22.0308 34.5833 17.5C34.5833 15.2566 34.1415 13.0351 33.2829 10.9625C32.4244 8.88984 31.1661 7.00658 29.5797 5.42025C27.9934 3.83391 26.1101 2.57557 24.0375 1.71705C21.9649 0.85853 19.7434 0.416656 17.5 0.416656ZM9.07791 28.2283C9.81249 26.6908 14.2883 25.1875 17.5 25.1875C20.7117 25.1875 25.1875 26.6908 25.9221 28.2283C23.5987 30.0733 20.6775 31.1667 17.5 31.1667C14.3225 31.1667 11.4012 30.0733 9.07791 28.2283ZM28.365 25.7512C25.9221 22.7787 19.9942 21.7708 17.5 21.7708C15.0058 21.7708 9.07791 22.7787 6.63499 25.7512C4.89249 23.4792 3.83332 20.6092 3.83332 17.5C3.83332 9.96624 9.96624 3.83332 17.5 3.83332C25.0337 3.83332 31.1667 9.96624 31.1667 17.5C31.1667 20.6092 30.1075 23.4792 28.365 25.7512ZM17.5 7.24999C14.1858 7.24999 11.5208 9.91499 11.5208 13.2292C11.5208 16.5433 14.1858 19.2083 17.5 19.2083C20.8142 19.2083 23.4792 16.5433 23.4792 13.2292C23.4792 9.91499 20.8142 7.24999 17.5 7.24999ZM17.5 15.7917C16.8204 15.7917 16.1686 15.5217 15.688 15.0411C15.2075 14.5606 14.9375 13.9088 14.9375 13.2292C14.9375 12.5495 15.2075 11.8978 15.688 11.4172C16.1686 10.9366 16.8204 10.6667 17.5 10.6667C18.1796 10.6667 18.8314 10.9366 19.312 11.4172C19.7925 11.8978 20.0625 12.5495 20.0625 13.2292C20.0625 13.9088 19.7925 14.5606 19.312 15.0411C18.8314 15.5217 18.1796 15.7917 17.5 15.7917Z" fill="white"/>
</svg>
