<svg width="44" height="41" viewBox="0 0 44 41" fill="none" xmlns="http://www.w3.org/2000/svg">
<path d="M43.9583 4.37081V0.695813L40.2833 0.287479C40.0792 0.287479 38.8542 0.083313 36.8125 0.083313C28.4417 0.083313 22.3167 2.53331 18.8458 6.82081C16.1917 5.18748 12.5167 4.16665 8.22917 4.16665C6.1875 4.16665 4.75833 4.37081 4.75833 4.37081L0.879166 4.98331L1.08333 8.45415C1.2875 14.5791 4.35 26.2166 14.9667 26.2166C15.1708 26.2166 15.1708 26.2166 15.375 26.2166V33.1583C7.61666 34.1791 1.08333 36.8333 1.08333 36.8333V40.9166H41.9167V36.8333C41.9167 36.8333 35.3833 34.1791 27.625 33.1583V26.625C40.4875 26.4208 43.9583 11.925 43.9583 4.37081ZM21.5 32.75C20.8875 32.75 20.0708 32.75 19.4583 32.75V21.3166C19.4583 21.3166 19.05 14.375 13.3333 14.375C13.3333 14.375 16.3958 16.0083 17.2125 21.9291C16.3958 22.1333 15.5792 22.1333 14.9667 22.1333C5.575 22.1333 5.16667 8.45415 5.16667 8.45415C5.16667 8.45415 6.39166 8.24998 8.22917 8.24998C12.1083 8.24998 18.4375 9.06665 20.275 14.5791C21.2958 5.39165 31.7083 4.16665 36.8125 4.16665C38.65 4.16665 39.875 4.37081 39.875 4.37081C39.875 4.37081 39.875 22.7458 27.0125 22.7458C26.6042 22.7458 25.9917 22.7458 25.5833 22.7458C25.5833 18.6625 29.6667 12.5375 29.6667 12.5375C23.5417 14.5791 23.5417 22.5416 23.5417 22.5416V32.75C22.9292 32.75 22.1125 32.75 21.5 32.75Z" fill="black"/>
</svg>
