<svg xmlns="http://www.w3.org/2000/svg" xmlns:xlink="http://www.w3.org/1999/xlink" xmlns:serif="http://www.serif.com/" viewBox="0 0 32 40" version="1.1" xml:space="preserve" style="" x="0px" y="0px" fill-rule="evenodd" clip-rule="evenodd" stroke-linejoin="round" stroke-miterlimit="2"><g transform="matrix(1,0,0,1,-10,-52)"><path d="M25.503,60.688C25.501,60.706 25.5,60.724 25.5,60.743L25.5,64.506C25.087,64.455 24.748,64.242 24.492,63.846C24.487,63.781 24.479,63.704 24.466,63.616C24.345,62.798 23.818,60.775 22.423,59.932C21.027,59.088 20.212,59.331 18.741,59.209C17.392,59.098 16.548,58.69 16.392,58.629C16.077,58.505 15.886,58.681 15.853,58.711C15.748,58.803 15.687,58.921 15.682,59.072C15.66,59.815 15.706,61.054 16.604,62.037C17.189,62.678 18.145,63.227 19.728,63.419C20.508,63.514 21.72,63.555 22.638,63.766C22.9,63.827 23.135,63.899 23.318,63.998C23.501,64.097 23.567,64.259 23.593,64.294C24.058,65.077 24.701,65.469 25.5,65.516L25.5,67.072C25.424,67.088 25.347,67.107 25.27,67.129C24.366,67.381 23.897,67.894 23.42,68.548C22.842,69.342 22.235,70.371 20.317,71.218C19.605,71.533 19.301,72.074 19.128,72.745C18.941,73.472 18.961,74.396 18.38,75.196C17.954,75.782 17.359,76.113 16.797,76.496C16.114,76.96 15.47,77.484 15.068,78.397C15.067,78.398 15.066,78.399 15.066,78.401C14.765,79.084 14.83,79.873 15.238,80.498C15.646,81.123 16.342,81.5 17.089,81.5L34.719,81.5C35.521,81.5 36.275,81.115 36.745,80.466C37.215,79.816 37.345,78.98 37.094,78.218C37.091,78.209 37.088,78.199 37.084,78.191C36.902,77.729 36.703,77.236 36.437,76.757C36.122,76.19 35.74,76.003 35.3,75.85C34.881,75.704 34.385,75.598 33.873,74.743C33.785,74.596 33.746,74.388 33.706,74.151C33.654,73.841 33.614,73.489 33.549,73.126C33.325,71.876 32.82,70.531 30.892,70.046C30.616,69.977 30.358,69.741 30.074,69.464C29.715,69.113 29.338,68.686 28.921,68.293C28.24,67.653 27.458,67.112 26.5,67.014L26.5,61.783C26.53,61.729 26.568,61.523 26.724,61.386C26.881,61.248 27.094,61.125 27.336,61.007C28.182,60.596 29.355,60.284 30.093,60.017C31.593,59.475 32.402,58.726 32.828,57.97C33.483,56.811 33.251,55.593 33.062,54.874C33.041,54.795 32.746,54.277 32.271,54.601C32.133,54.695 31.402,55.282 30.112,55.693C28.706,56.141 27.857,56.087 26.685,57.222C25.734,58.144 25.516,59.696 25.503,60.688ZM34.719,80.5L17.089,80.5C16.68,80.5 16.299,80.294 16.076,79.951C15.852,79.609 15.817,79.177 15.981,78.803L15.983,78.8C16.299,78.083 16.823,77.687 17.359,77.323C18.016,76.876 18.691,76.468 19.189,75.784C19.757,75.002 19.872,74.132 20.016,73.368C20.115,72.84 20.201,72.363 20.721,72.133C22.536,71.332 23.321,70.39 23.912,69.577C24.394,68.914 24.692,68.328 25.538,68.092C26.952,67.698 27.891,68.645 28.699,69.482C29.085,69.883 29.443,70.273 29.792,70.553C30.077,70.783 30.363,70.944 30.648,71.016C32.062,71.371 32.401,72.385 32.565,73.302C32.707,74.095 32.763,74.836 33.015,75.257C33.613,76.256 34.197,76.524 34.714,76.706C35.038,76.82 35.343,76.846 35.563,77.243C35.802,77.674 35.981,78.119 36.146,78.537C36.293,78.997 36.214,79.493 35.935,79.879C35.653,80.269 35.2,80.5 34.719,80.5ZM23.938,79.103C23.932,79.04 23.923,78.954 23.923,78.948C23.916,78.57 24.021,78.208 24.146,77.853C24.382,77.185 24.812,76.684 25.253,76.192C25.765,75.621 26.293,75.064 26.653,74.359C26.779,74.113 26.681,73.812 26.435,73.686C26.19,73.561 25.888,73.658 25.763,73.904C25.443,74.53 24.964,75.017 24.509,75.525C23.982,76.112 23.485,76.722 23.203,77.52C23.038,77.987 22.914,78.468 22.923,78.967C22.924,78.986 22.939,79.299 22.986,79.457C23.034,79.616 23.124,79.717 23.192,79.769C23.347,79.887 23.516,79.913 23.699,79.842C23.957,79.742 24.085,79.452 23.985,79.195C23.972,79.162 23.956,79.132 23.938,79.103ZM28.687,74.179C28.808,74.04 28.847,73.839 28.77,73.657C28.663,73.403 28.37,73.284 28.115,73.391C27.906,73.479 27.784,73.612 27.712,73.76C27.643,73.901 27.619,74.066 27.652,74.252C27.686,74.441 27.798,74.675 27.953,74.916C28.388,75.593 28.985,76.013 29.634,76.458C29.994,76.705 30.143,77.076 30.224,77.474C30.327,77.98 30.322,78.53 30.362,79.025C30.384,79.3 30.625,79.506 30.9,79.484C31.175,79.462 31.38,79.22 31.358,78.945C31.316,78.412 31.315,77.82 31.204,77.275C31.072,76.623 30.79,76.038 30.199,75.633C29.663,75.265 29.154,74.935 28.794,74.375C28.758,74.318 28.717,74.241 28.687,74.179ZM19.392,79.193C19.884,78.443 20.715,77.817 21.235,77.035C21.797,76.191 22.234,75.181 22.789,74.283C23.283,73.482 23.873,72.769 24.797,72.414C25.055,72.315 25.183,72.025 25.084,71.767C24.985,71.51 24.696,71.381 24.438,71.48C23.299,71.918 22.548,72.771 21.938,73.757C21.389,74.646 20.958,75.646 20.402,76.481C19.881,77.266 19.048,77.893 18.555,78.645C18.404,78.876 18.469,79.186 18.7,79.338C18.931,79.489 19.241,79.424 19.392,79.193ZM27.061,78.841C27.092,78.76 27.13,78.656 27.144,78.611C27.24,78.303 27.329,77.992 27.418,77.682C27.494,77.417 27.341,77.139 27.076,77.063C26.811,76.987 26.533,77.14 26.457,77.406C26.37,77.708 26.284,78.012 26.19,78.313C26.162,78.402 26.08,78.592 26.053,78.691C26.02,78.815 26.027,78.913 26.037,78.966C26.087,79.233 26.259,79.342 26.451,79.375C26.533,79.389 26.7,79.411 26.89,79.245C27.011,79.14 27.069,78.989 27.061,78.841ZM31.691,76.199C31.683,76.323 31.678,76.491 31.698,76.56C31.79,76.87 31.97,77.146 32.151,77.411C32.345,77.695 32.576,77.919 32.808,78.138C33.063,78.379 33.325,78.604 33.465,78.976C33.562,79.235 33.85,79.366 34.109,79.269C34.367,79.172 34.498,78.884 34.401,78.625C34.232,78.173 33.957,77.856 33.652,77.561C33.423,77.339 33.173,77.134 32.977,76.847C32.865,76.683 32.742,76.518 32.675,76.33C32.682,76.274 32.699,76.153 32.701,76.109C32.707,76.005 32.688,75.925 32.67,75.876C32.588,75.65 32.425,75.563 32.252,75.542C32.162,75.531 31.991,75.521 31.812,75.702C31.68,75.838 31.64,76.03 31.691,76.199ZM26.515,70.538C26.532,70.559 26.892,70.95 26.924,70.983C27.243,71.317 27.592,71.631 27.992,71.865C28.524,72.175 29.166,72.292 29.659,72.669C30.092,72.999 30.316,73.546 30.553,74.02C30.676,74.267 30.977,74.367 31.223,74.244C31.47,74.12 31.571,73.82 31.447,73.573C31.145,72.967 30.818,72.295 30.266,71.874C29.74,71.472 29.063,71.332 28.496,71.001C28.176,70.814 27.901,70.558 27.646,70.292C27.607,70.251 27.319,69.929 27.26,69.867C27.179,69.784 27.112,69.756 27.101,69.751C26.963,69.686 26.852,69.7 26.784,69.715C26.658,69.742 26.564,69.806 26.494,69.896C26.485,69.907 26.236,70.2 26.515,70.538ZM16.698,59.811C17.17,59.963 17.86,60.14 18.659,60.206C19.952,60.312 20.678,60.046 21.906,60.788C22.387,61.079 22.72,61.563 22.959,62.057C23.098,62.345 23.204,62.638 23.284,62.907C22.304,62.593 20.781,62.54 19.849,62.426C18.587,62.273 17.809,61.874 17.342,61.363C16.9,60.878 16.746,60.307 16.698,59.811ZM32.238,55.822C32.302,56.315 32.28,56.907 31.957,57.478C31.617,58.081 30.949,58.645 29.753,59.076C28.87,59.396 27.398,59.789 26.513,60.315C26.531,60.034 26.569,59.725 26.64,59.413C26.761,58.878 26.977,58.332 27.381,57.941C28.412,56.942 29.179,57.039 30.416,56.646C31.179,56.402 31.812,56.076 32.238,55.822Z"/></g><text x="0" y="47" fill="#000000" font-size="5px" font-weight="bold" font-family="'Helvetica Neue', Helvetica, Arial-Unicode, Arial, Sans-serif">Created by mpanicon</text><text x="0" y="52" fill="#000000" font-size="5px" font-weight="bold" font-family="'Helvetica Neue', Helvetica, Arial-Unicode, Arial, Sans-serif">from the Noun Project</text></svg>